<svg width="800" height="1000" xmlns="http://www.w3.org/2000/svg">
  <defs>
    <linearGradient id="ga" x1="0%" y1="0%" x2="100%" y2="100%">
      <stop offset="0%" style="stop-color:#0a0a0a"/>
      <stop offset="100%" style="stop-color:#1a1a1a"/>
    </linearGradient>
  </defs>
  <rect width="100%" height="100%" fill="url(#ga)"/>
  <circle cx="200" cy="200" r="100" fill="#0066ff" opacity="0.1"/>
  <circle cx="600" cy="800" r="150" fill="#0066ff" opacity="0.1"/>
  <rect x="150" y="300" width="500" height="400" rx="16" fill="#111"/>
  <rect x="180" y="330" width="200" height="120" rx="8" fill="#1a1a1a"/>
  <rect x="180" y="470" width="440" height="8" rx="4" fill="#222"/>
  <rect x="180" y="490" width="380" height="8" rx="4" fill="#222"/>
  <rect x="180" y="510" width="420" height="8" rx="4" fill="#222"/>
  <rect x="180" y="550" width="140" height="40" rx="6" fill="#0066ff"/>
  <rect x="400" y="330" width="220" height="120" rx="8" fill="#1a1a1a"/>
  <circle cx="510" cy="390" r="30" fill="#0066ff" opacity="0.3"/>
  <polygon points="500,375 500,405 525,390" fill="#fff"/>
  <text x="400" y="250" font-family="sans-serif" font-size="32" font-weight="bold" fill="#fff">Videofac</text>
  <text x="400" y="280" font-family="sans-serif" font-size="14" fill="#666">AI Video Generation</text>
</svg>