<svg width="800" height="600" xmlns="http://www.w3.org/2000/svg">
  <defs>
    <linearGradient id="g2" x1="0%" y1="0%" x2="100%" y2="100%">
      <stop offset="0%" style="stop-color:#f8f9fa"/>
      <stop offset="100%" style="stop-color:#e9ecef"/>
    </linearGradient>
  </defs>
  <rect width="100%" height="100%" fill="url(#g2)"/>
  <rect x="150" y="150" width="500" height="300" rx="12" fill="#fff" filter="drop-shadow(0 4px 6px rgba(0,0,0,0.1))"/>
  <rect x="180" y="180" width="120" height="80" rx="6" fill="#0066ff" opacity="0.1"/>
  <rect x="180" y="270" width="120" height="4" rx="2" fill="#e9ecef"/>
  <rect x="180" y="282" width="80" height="4" rx="2" fill="#e9ecef"/>
  <rect x="320" y="180" width="120" height="80" rx="6" fill="#0066ff" opacity="0.2"/>
  <rect x="320" y="270" width="120" height="4" rx="2" fill="#e9ecef"/>
  <rect x="320" y="282" width="80" height="4" rx="2" fill="#e9ecef"/>
  <rect x="460" y="180" width="120" height="80" rx="6" fill="#0066ff" opacity="0.3"/>
  <rect x="460" y="270" width="120" height="4" rx="2" fill="#e9ecef"/>
  <rect x="460" y="282" width="80" height="4" rx="2" fill="#e9ecef"/>
  <rect x="180" y="340" width="400" height="30" rx="6" fill="#0066ff"/>
  <text x="380" y="360" font-family="sans-serif" font-size="14" fill="#fff" text-anchor="middle">60% Faster</text>
  <rect x="180" y="390" width="240" height="30" rx="6" fill="#e9ecef"/>
</svg>